<?xml version="1.0" encoding="UTF-8"?>
<!-- Generator: Adobe Illustrator 16.0.4, SVG Export Plug-In . SVG Version: 6.00 Build 0)  -->
<svg width="808" height="237" enable-background="new 0 0 807.682 331.561" version="1.1" viewBox="0 0 808 237" xml:space="preserve" xmlns="http://www.w3.org/2000/svg">

<g id="logo_apollo_white" transform="translate(.256 -47.1)">
	<g fill="#333">
		<polygon points="71.5 205 93.4 205 99.2 190 132 190 126 173 104 173 119 134 144 205 166 205 131 114 107 114"/>
		<path d="m500 205v-91.1h19.5v74h38.5v17.1h-58z"/>
		<path d="m613 205v-91.1h19.5v74h38.5v17.1h-58z"/>
		<path d="m392 131c16.2 0 29.3 13.1 29.3 29.3 0 16.2-13.1 29.3-29.3 29.3-16.2 0-29.3-13.1-29.3-29.3 0-16.2 13.1-29.3 29.3-29.3m0-17.8c-26 0-47.1 21.1-47.1 47.1 0 26 21.1 47.1 47.1 47.1s47.1-21.1 47.1-47.1-21.1-47.1-47.1-47.1z"/>
		<path d="m761 131c16.2 0 29.3 13.1 29.3 29.3 0 16.2-13.1 29.3-29.3 29.3-16.2 0-29.3-13.1-29.3-29.3 0-16.2 13.1-29.3 29.3-29.3m0-17.8c-26 0-47.1 21.1-47.1 47.1 0 26 21.1 47.1 47.1 47.1 26 0 47.1-21.1 47.1-47.1s-21.1-47.1-47.1-47.1z"/>
		<path d="m265 114h-42.5v91.1h19.4v-31.4h23.1c16.2 0 29.3-13.7 29.3-29.9 0-16.2-13.1-29.9-29.3-29.9zm0 41.9h-23.1v-24.1h23.1c6.34 0 11.5 5.71 11.5 12 0 6.34-5.15 12-11.5 12z"/>
		</g>
			<path d="m206 233c-1.69 0-3.18 0.836-4.09 2.12 0 0-4.38 4.99-6.73 7.35-9.98 9.98-21.6 17.8-34.5 23.3-13.4 5.66-27.6 8.53-42.3 8.53-14.7 0-28.9-2.87-42.3-8.53-12.9-5.47-24.6-13.3-34.5-23.3-9.98-9.98-17.8-21.6-23.3-34.5-5.66-13.4-8.53-27.6-8.53-42.3s2.87-28.9 8.53-42.3c5.47-12.9 13.3-24.6 23.3-34.5s21.6-17.8 34.5-23.3c13.4-5.66 27.6-8.53 42.3-8.53 14.7 0 28.9 2.87 42.3 8.53 9.42 3.99 18.1 9.23 26 15.6-0.422 1.24-0.658 2.58-0.658 3.96 0 6.77 5.49 12.3 12.3 12.3 6.77 0 12.3-5.49 12.3-12.3 0-6.77-5.49-12.3-12.3-12.3-1.68 0-3.28 0.339-4.74 0.953-20.5-16.8-46.6-26.9-75.2-26.9-65.5 0-119 53.1-119 119s53.1 119 119 119c36.7 0 69.4-16.6 91.2-42.8 0.905-0.907 1.47-2.16 1.47-3.54-2e-3 -2.78-2.25-5.02-5.02-5.02z" fill="#333"/>
		
	
</g>

</svg>
