<?xml version="1.0" encoding="UTF-8" standalone="no"?>
<!-- Generator: Adobe Illustrator 18.0.0, SVG Export Plug-In . SVG Version: 6.00 Build 0)  -->

<svg
   version="1.1"
   id="GraphQL_Logo"
   x="0px"
   y="0px"
   viewBox="0 0 348.52014 391.60001"
   enable-background="new 0 0 400 400"
   xml:space="preserve"
   width="348.52014"
   height="391.60001"
   xmlns="http://www.w3.org/2000/svg"
   xmlns:svg="http://www.w3.org/2000/svg"><defs
   id="defs73" />
<g
   id="g68"
   transform="translate(-25.739933,-4.2)">
	<g
   id="g6">
		<g
   id="g4">
			
				<rect
   x="122"
   y="-0.40000001"
   transform="matrix(-0.866,-0.5,0.5,-0.866,163.3196,363.3136)"
   fill="#e535ab"
   width="16.6"
   height="320.29999"
   id="rect2" />
		</g>
	</g>
	<g
   id="g12">
		<g
   id="g10">
			<rect
   x="39.799999"
   y="272.20001"
   fill="#e535ab"
   width="320.29999"
   height="16.6"
   id="rect8" />
		</g>
	</g>
	<g
   id="g18">
		<g
   id="g16">
			
				<rect
   x="37.900002"
   y="312.20001"
   transform="matrix(-0.866,-0.5,0.5,-0.866,83.0693,663.3409)"
   fill="#e535ab"
   width="185"
   height="16.6"
   id="rect14" />
		</g>
	</g>
	<g
   id="g24">
		<g
   id="g22">
			
				<rect
   x="177.10001"
   y="71.099998"
   transform="matrix(-0.866,-0.5,0.5,-0.866,463.3409,283.0693)"
   fill="#e535ab"
   width="185"
   height="16.6"
   id="rect20" />
		</g>
	</g>
	<g
   id="g30">
		<g
   id="g28">
			
				<rect
   x="122.1"
   y="-13"
   transform="matrix(-0.5,-0.866,0.866,-0.5,126.7903,232.1221)"
   fill="#e535ab"
   width="16.6"
   height="185"
   id="rect26" />
		</g>
	</g>
	<g
   id="g36">
		<g
   id="g34">
			
				<rect
   x="109.6"
   y="151.60001"
   transform="matrix(-0.5,-0.866,0.866,-0.5,266.0828,473.3766)"
   fill="#e535ab"
   width="320.29999"
   height="16.6"
   id="rect32" />
		</g>
	</g>
	<g
   id="g42">
		<g
   id="g40">
			<rect
   x="52.5"
   y="107.5"
   fill="#e535ab"
   width="16.6"
   height="185"
   id="rect38" />
		</g>
	</g>
	<g
   id="g48">
		<g
   id="g46">
			<rect
   x="330.89999"
   y="107.5"
   fill="#e535ab"
   width="16.6"
   height="185"
   id="rect44" />
		</g>
	</g>
	<g
   id="g54">
		<g
   id="g52">
			
				<rect
   x="262.39999"
   y="240.10001"
   transform="matrix(-0.5,-0.866,0.866,-0.5,126.7953,714.2875)"
   fill="#e535ab"
   width="14.5"
   height="160.89999"
   id="rect50" />
		</g>
	</g>
	<path
   fill="#e535ab"
   d="m 369.5,297.9 c -9.6,16.7 -31,22.4 -47.7,12.8 -16.7,-9.6 -22.4,-31 -12.8,-47.7 9.6,-16.7 31,-22.4 47.7,-12.8 16.8,9.7 22.5,31 12.8,47.7"
   id="path56" />
	<path
   fill="#e535ab"
   d="m 90.9,137 c -9.6,16.7 -31,22.4 -47.7,12.8 -16.7,-9.6 -22.4,-31 -12.8,-47.7 9.6,-16.7 31,-22.4 47.7,-12.8 16.7,9.7 22.4,31 12.8,47.7"
   id="path58" />
	<path
   fill="#e535ab"
   d="m 30.5,297.9 c -9.6,-16.7 -3.9,-38 12.8,-47.7 16.7,-9.6 38,-3.9 47.7,12.8 9.6,16.7 3.9,38 -12.8,47.7 -16.8,9.6 -38.1,3.9 -47.7,-12.8"
   id="path60" />
	<path
   fill="#e535ab"
   d="m 309.1,137 c -9.6,-16.7 -3.9,-38 12.8,-47.7 16.7,-9.6 38,-3.9 47.7,12.8 9.6,16.7 3.9,38 -12.8,47.7 -16.7,9.6 -38.1,3.9 -47.7,-12.8"
   id="path62" />
	<path
   fill="#e535ab"
   d="m 200,395.8 c -19.3,0 -34.9,-15.6 -34.9,-34.9 0,-19.3 15.6,-34.9 34.9,-34.9 19.3,0 34.9,15.6 34.9,34.9 0,19.2 -15.6,34.9 -34.9,34.9"
   id="path64" />
	<path
   fill="#e535ab"
   d="m 200,74 c -19.3,0 -34.9,-15.6 -34.9,-34.9 0,-19.3 15.6,-34.9 34.9,-34.9 19.3,0 34.9,15.6 34.9,34.9 0,19.3 -15.6,34.9 -34.9,34.9"
   id="path66" />
</g>
</svg>
